<?xml version="1.0" standalone="no"?>
<!DOCTYPE svg PUBLIC "-//W3C//DTD SVG 1.1//EN"
	"http://www.w3.org/Graphics/SVG/1.1/DTD/svg11.dtd">
<svg xmlns="http://www.w3.org/2000/svg" version="1.1"
	xmlns:xlink="http://www.w3.org/1999/xlink"
	color="black"
	width="816.00px" height="162.00px">
<style type="text/css">
.fill {fill: currentColor}
.stroke {stroke: currentColor; fill: none}
text{white-space:pre; fill:currentColor}
</style>
<title>/var/folders/1h/l9f7pgjn5mgc2xg2jgvvjsp40000gn/T/tmpvb9e2wwx/h.abc (1) tune 1</title>
<!-- Creator: abcm2ps-8.14.18 -->
<!-- CreationDate: Aug 27, 2026 16:27 -->
<!-- CommandLine: -g -O /var/folders/1h/l9f7pgjn5mgc2xg2jgvvjsp40000gn/T/tmpvb9e2wwx/p - /var/folders/1h/l9f7pgjn5mgc2xg2jgvvjsp40000gn/T/tmpvb9e2wwx/h.abc -->
<g stroke-width="0.70">
<defs>
<g id="rdots" class="fill">
	<circle cx="0" cy="-9" r="1.2"/>
	<circle cx="0" cy="-15" r="1.2"/>
</g>
</defs>
<use x="156.90" y="64.00" xlink:href="#rdots"/>
<path class="stroke" stroke-width="1"
	d="M151.90 64.00v-24.00"/>
<path class="stroke" stroke-width="3"
	d="M147.40 64.00v-24.00"/>
<path class="stroke" stroke-width="1"
	d="M286.90 64.00v-24.00"/>
<path class="stroke" stroke-width="1"
	d="M394.90 64.00v-24.00"/>
<path class="stroke" stroke-width="1"
	d="M524.90 64.00v-24.00"/>
<path class="stroke" stroke-width="3"
	d="M636.90 64.00v-24.00"/>
<path class="stroke" stroke-width="1"
	d="M631.40 64.00v-24.00"/>
<use x="627.40" y="64.00" xlink:href="#rdots"/>
<path class="stroke" stroke-width="1"
	d="M747.80 64.00v-24.00"/>
<path class="stroke" stroke-width="1"
	d="M743.80 64.00v-24.00"/>
<path d="m67.20 64.00
	h681.60
	M67.20 58.00
	h681.60
	M67.20 52.00
	h681.60
	M67.20 46.00
	h681.60
	M67.20 40.00
	h681.60
	" class="stroke"/>
</g>
<g stroke-width="0.70" style="font:13.00px Times">
<text x="529.90" y="25.40">1</text>
<path class="stroke"
	d="M525.90 14.00m0 20v-20h104.50v20"/>
<text x="642.40" y="25.40">2</text>
<path class="stroke"
	d="M638.40 14.00m0 20v-20h110.40v20"/>
<defs>
<path id="utclef" class="fill" d="m-50 -90
	c-72 -41 -72 -158 52 -188
	150 -10 220 188 90 256
	-114 52 -275 0 -293 -136
	-15 -181 93 -229 220 -334
	88 -87 79 -133 62 -210
	-51 33 -94 105 -89 186
	17 267 36 374 49 574
	6 96 -19 134 -77 135
	-80 1 -126 -93 -61 -133
	85 -41 133 101 31 105
	23 17 92 37 90 -92
	-10 -223 -39 -342 -50 -617
	0 -90 0 -162 96 -232
	56 72 63 230 22 289
	-74 106 -257 168 -255 316
	9 153 148 185 252 133
	86 -65 29 -192 -80 -176
	-71 12 -105 67 -59 124"/>
<use id="tclef" transform="translate(0,6) scale(0.045)"
	xlink:href="#utclef"/>
</defs>
<use x="79.20" y="58.00" xlink:href="#tclef"/>
<g style="font:bold 16px serif"
	transform="translate(97.70,63.50) scale(1.2,1)">
	<text text-anchor="middle">4</text>
	<text y="-12" text-anchor="middle">4</text>
</g>
<path class="fill"
	d="M118.90 51.80l21.90 0.00v3.20l-21.90 -0.00"/>
<path class="fill"
	d="M119.20 56.80l21.20 0.00v3.20l-21.20 -0.00"/>
<defs>
<path id="hl" class="stroke" d="m-6 0h12"/>
</defs>
<use x="115.70" y="70.00" xlink:href="#hl"/>
<use x="115.70" y="76.00" xlink:href="#hl"/>
<defs>
<ellipse id="hd" rx="4.1" ry="2.9"
	transform="rotate(-20)" class="fill"/>
</defs>
<use x="115.70" y="79.00" xlink:href="#hd"/>
<path d="M119.20 79.00v-26.20" class="stroke"/>
<use x="136.90" y="70.00" xlink:href="#hl"/>
<use x="136.90" y="76.00" xlink:href="#hl"/>
<use x="136.90" y="79.00" xlink:href="#hd"/>
<path d="M140.40 79.00v-26.20" class="stroke"/>
<path class="fill"
	d="M177.70 49.00l90.70 0.00v3.20l-90.70 -0.00"/>
<use x="174.50" y="70.00" xlink:href="#hl"/>
<use x="174.50" y="70.00" xlink:href="#hd"/>
<path d="M178.00 70.00v-20.00" class="stroke"/>
<use x="204.50" y="70.00" xlink:href="#hl"/>
<use x="204.50" y="70.00" xlink:href="#hd"/>
<path d="M208.00 70.00v-20.00" class="stroke"/>
<use x="234.50" y="67.00" xlink:href="#hd"/>
<path d="M238.00 67.00v-17.00" class="stroke"/>
<use x="264.60" y="70.00" xlink:href="#hl"/>
<use x="264.60" y="70.00" xlink:href="#hd"/>
<path d="M268.10 70.00v-20.00" class="stroke"/>
<use x="304.60" y="70.00" xlink:href="#hl"/>
<use x="304.60" y="70.00" xlink:href="#hd"/>
<circle class="fill" cx="312.30" cy="67.00" r="1.2"/>
<path d="M308.10 70.00v-21.00" class="stroke"/>
<path class="fill"
	d="M361.40 45.70l21.90 -4.00v3.20l-21.90 4.00"/>
<path class="fill"
	d="M361.70 50.60l21.20 -3.80v3.20l-21.20 3.80"/>
<use x="358.20" y="70.00" xlink:href="#hl"/>
<use x="358.20" y="70.00" xlink:href="#hd"/>
<path d="M361.70 70.00v-23.40" class="stroke"/>
<use x="379.40" y="64.00" xlink:href="#hd"/>
<path d="M382.90 64.00v-21.20" class="stroke"/>
<path class="fill"
	d="M415.70 36.60l90.70 6.50v3.20l-90.70 -6.50"/>
<use x="412.60" y="58.00" xlink:href="#hd"/>
<path d="M416.10 58.00v-20.40" class="stroke"/>
<use x="442.60" y="58.00" xlink:href="#hd"/>
<path d="M446.10 58.00v-18.20" class="stroke"/>
<use x="472.60" y="64.00" xlink:href="#hd"/>
<path d="M476.10 64.00v-22.00" class="stroke"/>
<use x="502.60" y="70.00" xlink:href="#hl"/>
<use x="502.60" y="70.00" xlink:href="#hd"/>
<path d="M506.10 70.00v-25.90" class="stroke"/>
<use x="542.60" y="64.00" xlink:href="#hd"/>
<circle class="fill" cx="550.30" cy="61.00" r="1.2"/>
<path d="M546.10 64.00v-21.00" class="stroke"/>
<path class="fill"
	d="M599.40 51.80l21.90 0.00v3.20l-21.90 -0.00"/>
<path class="fill"
	d="M599.80 56.80l21.20 0.00v3.20l-21.20 -0.00"/>
<use x="596.30" y="70.00" xlink:href="#hl"/>
<use x="596.30" y="76.00" xlink:href="#hl"/>
<use x="596.30" y="79.00" xlink:href="#hd"/>
<path d="M599.80 79.00v-26.20" class="stroke"/>
<use x="617.50" y="70.00" xlink:href="#hl"/>
<use x="617.50" y="76.00" xlink:href="#hl"/>
<use x="617.50" y="79.00" xlink:href="#hd"/>
<path d="M621.00 79.00v-26.20" class="stroke"/>
<use x="655.10" y="64.00" xlink:href="#hd"/>
<circle class="fill" cx="662.80" cy="61.00" r="1.2"/>
<path d="M658.60 64.00v-21.00" class="stroke"/>
<path class="fill"
	d="M711.90 45.70l21.90 -4.00v3.20l-21.90 4.00"/>
<path class="fill"
	d="M712.20 50.60l21.20 -3.80v3.20l-21.20 3.80"/>
<use x="708.70" y="70.00" xlink:href="#hl"/>
<use x="708.70" y="70.00" xlink:href="#hd"/>
<path d="M712.20 70.00v-23.40" class="stroke"/>
<use x="729.90" y="64.00" xlink:href="#hd"/>
<path d="M733.40 64.00v-21.20" class="stroke"/>
</g>
<g stroke-width="0.70" style="font:13.00px Times">
<use x="106.20" y="139.00" xlink:href="#rdots"/>
<path class="stroke" stroke-width="1"
	d="M101.20 139.00v-24.00"/>
<path class="stroke" stroke-width="3"
	d="M96.70 139.00v-24.00"/>
<path class="stroke" stroke-width="1"
	d="M254.80 139.00v-24.00"/>
<path class="stroke" stroke-width="1"
	d="M405.00 139.00v-24.00"/>
<path class="stroke" stroke-width="1"
	d="M553.60 139.00v-24.00"/>
<path class="stroke" stroke-width="3"
	d="M679.20 139.00v-24.00"/>
<path class="stroke" stroke-width="1"
	d="M673.70 139.00v-24.00"/>
<use x="669.70" y="139.00" xlink:href="#rdots"/>
<path class="stroke" stroke-width="3"
	d="M747.30 139.00v-24.00"/>
<path class="stroke" stroke-width="1"
	d="M741.80 139.00v-24.00"/>
<path d="m67.20 139.00
	h681.60
	M67.20 133.00
	h681.60
	M67.20 127.00
	h681.60
	M67.20 121.00
	h681.60
	M67.20 115.00
	h681.60
	" class="stroke"/>
<text x="558.60" y="100.40">1</text>
<path class="stroke"
	d="M554.60 89.00m0 20v-20h118.10v20"/>
<text x="684.70" y="100.40">2</text>
<path class="stroke"
	d="M680.70 89.00m0 20v-20h68.10v20"/>
<use x="79.20" y="133.00" xlink:href="#tclef"/>
<path class="fill"
	d="M129.40 111.60l103.50 6.60v3.20l-103.50 -6.60"/>
<use x="126.20" y="133.00" xlink:href="#hd"/>
<path d="M129.70 133.00v-20.40" class="stroke"/>
<use x="160.50" y="133.00" xlink:href="#hd"/>
<path d="M164.00 133.00v-18.20" class="stroke"/>
<use x="194.80" y="139.00" xlink:href="#hd"/>
<path d="M198.30 139.00v-22.00" class="stroke"/>
<use x="229.10" y="145.00" xlink:href="#hl"/>
<use x="229.10" y="145.00" xlink:href="#hd"/>
<path d="M232.60 145.00v-25.80" class="stroke"/>
<use x="274.80" y="145.00" xlink:href="#hl"/>
<use x="274.80" y="151.00" xlink:href="#hl"/>
<use x="274.80" y="151.00" xlink:href="#hd"/>
<path d="M278.30 151.00v-24.00" class="stroke"/>
<path class="fill"
	d="M331.80 120.80l59.20 0.00v3.20l-59.20 -0.00"/>
<path class="fill"
	d="M366.50 125.80l24.20 0.00v3.20l-24.20 -0.00"/>
<use x="328.70" y="145.00" xlink:href="#hl"/>
<use x="328.70" y="151.00" xlink:href="#hl"/>
<use x="328.70" y="154.00" xlink:href="#hd"/>
<path d="M332.20 154.00v-32.20" class="stroke"/>
<use x="363.00" y="145.00" xlink:href="#hl"/>
<use x="363.00" y="151.00" xlink:href="#hl"/>
<use x="363.00" y="154.00" xlink:href="#hd"/>
<path d="M366.50 154.00v-32.20" class="stroke"/>
<use x="387.20" y="145.00" xlink:href="#hl"/>
<use x="387.20" y="145.00" xlink:href="#hd"/>
<path d="M390.70 145.00v-23.20" class="stroke"/>
<path class="fill"
	d="M428.20 120.80l103.50 0.00v3.20l-103.50 -0.00"/>
<use x="425.10" y="139.00" xlink:href="#hd"/>
<path d="M428.60 139.00v-17.20" class="stroke"/>
<use x="459.40" y="145.00" xlink:href="#hl"/>
<use x="459.40" y="145.00" xlink:href="#hd"/>
<path d="M462.90 145.00v-23.20" class="stroke"/>
<use x="493.70" y="139.00" xlink:href="#hd"/>
<path d="M497.20 139.00v-17.20" class="stroke"/>
<use x="527.90" y="142.00" xlink:href="#hd"/>
<path d="M531.40 142.00v-20.20" class="stroke"/>
<use x="573.70" y="145.00" xlink:href="#hl"/>
<use x="573.70" y="145.00" xlink:href="#hd"/>
<circle class="fill" cx="581.40" cy="142.00" r="1.2"/>
<path d="M577.20 145.00v-21.00" class="stroke"/>
<path class="fill"
	d="M638.10 120.90l24.90 -4.10v3.20l-24.90 4.10"/>
<path class="fill"
	d="M638.40 125.80l24.20 -4.00v3.20l-24.20 4.00"/>
<use x="634.90" y="145.00" xlink:href="#hl"/>
<use x="634.90" y="145.00" xlink:href="#hd"/>
<path d="M638.40 145.00v-23.20" class="stroke"/>
<use x="659.20" y="139.00" xlink:href="#hd"/>
<path d="M662.70 139.00v-21.20" class="stroke"/>
<use x="699.80" y="145.00" xlink:href="#hl"/>
<use x="699.80" y="145.00" xlink:href="#hd"/>
<circle class="fill" cx="707.50" cy="142.00" r="1.2"/>
<path d="M703.30 145.00v-21.00" class="stroke"/>
</g>
</svg>
