<?xml version="1.0" standalone="no"?>
<!DOCTYPE svg PUBLIC "-//W3C//DTD SVG 1.1//EN"
	"http://www.w3.org/Graphics/SVG/1.1/DTD/svg11.dtd">
<svg xmlns="http://www.w3.org/2000/svg" version="1.1"
	xmlns:xlink="http://www.w3.org/1999/xlink"
	color="black"
	width="816.00px" height="162.00px">
<style type="text/css">
.fill {fill: currentColor}
.stroke {stroke: currentColor; fill: none}
text{white-space:pre; fill:currentColor}
</style>
<title>/var/folders/1h/l9f7pgjn5mgc2xg2jgvvjsp40000gn/T/tmpyfoyqynb/h.abc (1) tune 1</title>
<!-- Creator: abcm2ps-8.14.18 -->
<!-- CreationDate: Aug 27, 2026 16:27 -->
<!-- CommandLine: -g -O /var/folders/1h/l9f7pgjn5mgc2xg2jgvvjsp40000gn/T/tmpyfoyqynb/p - /var/folders/1h/l9f7pgjn5mgc2xg2jgvvjsp40000gn/T/tmpyfoyqynb/h.abc -->
<g stroke-width="0.70">
<defs>
<g id="rdots" class="fill">
	<circle cx="0" cy="-9" r="1.2"/>
	<circle cx="0" cy="-15" r="1.2"/>
</g>
</defs>
<use x="126.20" y="64.00" xlink:href="#rdots"/>
<path class="stroke" stroke-width="1"
	d="M121.20 64.00v-24.00"/>
<path class="stroke" stroke-width="3"
	d="M116.70 64.00v-24.00"/>
<path class="stroke" stroke-width="1"
	d="M263.60 64.00v-24.00"/>
<path class="stroke" stroke-width="1"
	d="M362.00 64.00v-24.00"/>
<path class="stroke" stroke-width="1"
	d="M499.40 64.00v-24.00"/>
<path class="stroke" stroke-width="3"
	d="M611.30 64.00v-24.00"/>
<path class="stroke" stroke-width="1"
	d="M605.80 64.00v-24.00"/>
<use x="601.80" y="64.00" xlink:href="#rdots"/>
<path class="stroke" stroke-width="1"
	d="M747.80 64.00v-24.00"/>
<path class="stroke" stroke-width="1"
	d="M743.80 64.00v-24.00"/>
<path d="m67.20 64.00
	h681.60
	M67.20 58.00
	h681.60
	M67.20 52.00
	h681.60
	M67.20 46.00
	h681.60
	M67.20 40.00
	h681.60
	" class="stroke"/>
</g>
<g stroke-width="0.70" style="font:12.00px Helvetica">
<text x="136.50" y="27.60">C</text>
<text x="198.10" y="27.60">Am</text>
<text x="274.10" y="27.60">C</text>
<text x="368.00" y="27.60">Am</text>
<text x="433.90" y="27.60">Dm</text>
<text x="519.00" y="27.60">F</text>
<text x="568.40" y="27.60">G</text>
<text x="631.30" y="27.60">F</text>
<text x="680.70" y="27.60">G</text>
</g>
<g stroke-width="0.70" style="font:13.00px Times">
<text x="504.40" y="25.40">1</text>
<path class="stroke"
	d="M500.40 14.00m0 20v-20h104.40v20"/>
<text x="616.80" y="25.40">2</text>
<path class="stroke"
	d="M612.80 14.00m0 20v-20h136.00v20"/>
<defs>
<path id="utclef" class="fill" d="m-50 -90
	c-72 -41 -72 -158 52 -188
	150 -10 220 188 90 256
	-114 52 -275 0 -293 -136
	-15 -181 93 -229 220 -334
	88 -87 79 -133 62 -210
	-51 33 -94 105 -89 186
	17 267 36 374 49 574
	6 96 -19 134 -77 135
	-80 1 -126 -93 -61 -133
	85 -41 133 101 31 105
	23 17 92 37 90 -92
	-10 -223 -39 -342 -50 -617
	0 -90 0 -162 96 -232
	56 72 63 230 22 289
	-74 106 -257 168 -255 316
	9 153 148 185 252 133
	86 -65 29 -192 -80 -176
	-71 12 -105 67 -59 124"/>
<use id="tclef" transform="translate(0,6) scale(0.045)"
	xlink:href="#utclef"/>
</defs>
<use x="79.20" y="58.00" xlink:href="#tclef"/>
<g style="font:bold 16px serif"
	transform="translate(97.70,63.50) scale(1.2,1)">
	<text text-anchor="middle">4</text>
	<text y="-12" text-anchor="middle">4</text>
</g>
<defs>
<ellipse id="hd" rx="4.1" ry="2.9"
	transform="rotate(-20)" class="fill"/>
</defs>
<use x="140.00" y="58.00" xlink:href="#hd"/>
<circle class="fill" cx="147.70" cy="55.00" r="1.2"/>
<path d="M143.50 58.00v-21.00" class="stroke"/>
<use x="180.70" y="64.00" xlink:href="#hd"/>
<path d="M184.20 64.00v-21.00" class="stroke"/>
<path class="fill"
	d="M184.20 43.00c0.6 5.6 9.6 9 5.6 18.4
	1.6 -6 -1.3 -11.6 -5.6 -12.8
"/>
<use x="206.00" y="55.00" xlink:href="#hd"/>
<circle class="fill" cx="213.70" cy="55.00" r="1.2"/>
<path d="M209.50 55.00v-21.00" class="stroke"/>
<use x="246.60" y="58.00" xlink:href="#hd"/>
<path d="M250.10 58.00v-21.00" class="stroke"/>
<path class="fill"
	d="M250.10 37.00c0.6 5.6 9.6 9 5.6 18.4
	1.6 -6 -1.3 -11.6 -5.6 -12.8
"/>
<defs>
<path id="Hd" class="fill" d="m3 -1.6
	c-1 -1.8 -7 1.4 -6 3.2
	1 1.8 7 -1.4 6 -3.2
	m0.5 -0.3
	c2 3.8 -5 7.6 -7 3.8
	-2 -3.8 5 -7.6 7 -3.8"/>
</defs>
<use x="277.60" y="64.00" xlink:href="#Hd"/>
<path d="M281.10 64.00v-21.00" class="stroke"/>
<defs>
<path id="hl" class="stroke" d="m-6 0h12"/>
</defs>
<use x="327.70" y="70.00" xlink:href="#hl"/>
<use x="327.70" y="70.00" xlink:href="#Hd"/>
<path d="M331.20 70.00v-21.00" class="stroke"/>
<use x="375.90" y="64.00" xlink:href="#hd"/>
<circle class="fill" cx="383.60" cy="61.00" r="1.2"/>
<path d="M379.40 64.00v-21.00" class="stroke"/>
<use x="416.50" y="70.00" xlink:href="#hl"/>
<use x="416.50" y="70.00" xlink:href="#hd"/>
<path d="M420.00 70.00v-21.00" class="stroke"/>
<path class="fill"
	d="M420.00 49.00c0.6 5.6 9.6 9 5.6 18.4
	1.6 -6 -1.3 -11.6 -5.6 -12.8
"/>
<use x="441.80" y="67.00" xlink:href="#hd"/>
<circle class="fill" cx="449.50" cy="67.00" r="1.2"/>
<path d="M445.30 67.00v-21.00" class="stroke"/>
<use x="482.50" y="70.00" xlink:href="#hl"/>
<use x="482.50" y="70.00" xlink:href="#hd"/>
<path d="M486.00 70.00v-21.00" class="stroke"/>
<path class="fill"
	d="M486.00 49.00c0.6 5.6 9.6 9 5.6 18.4
	1.6 -6 -1.3 -11.6 -5.6 -12.8
"/>
<use x="521.90" y="70.00" xlink:href="#hl"/>
<use x="521.90" y="76.00" xlink:href="#hl"/>
<use x="521.90" y="76.00" xlink:href="#Hd"/>
<path d="M525.40 76.00v-24.00" class="stroke"/>
<use x="572.20" y="70.00" xlink:href="#hl"/>
<use x="572.20" y="76.00" xlink:href="#hl"/>
<use x="572.20" y="79.00" xlink:href="#Hd"/>
<path d="M575.70 79.00v-27.00" class="stroke"/>
<use x="634.30" y="70.00" xlink:href="#hl"/>
<use x="634.30" y="76.00" xlink:href="#hl"/>
<use x="634.30" y="76.00" xlink:href="#Hd"/>
<path d="M637.80 76.00v-24.00" class="stroke"/>
<use x="684.50" y="70.00" xlink:href="#hl"/>
<use x="684.50" y="76.00" xlink:href="#hl"/>
<use x="684.50" y="79.00" xlink:href="#hd"/>
<path d="M688.00 79.00v-27.00" class="stroke"/>
<use x="720.10" y="70.00" xlink:href="#hl"/>
<use x="720.10" y="76.00" xlink:href="#hl"/>
<use x="720.10" y="79.00" xlink:href="#hd"/>
<path d="M723.60 79.00v-27.00" class="stroke"/>
</g>
<g stroke-width="0.70" style="font:13.00px Times">
<use x="106.20" y="139.00" xlink:href="#rdots"/>
<path class="stroke" stroke-width="1"
	d="M101.20 139.00v-24.00"/>
<path class="stroke" stroke-width="3"
	d="M96.70 139.00v-24.00"/>
<path class="stroke" stroke-width="1"
	d="M236.10 139.00v-24.00"/>
<path class="stroke" stroke-width="1"
	d="M382.20 139.00v-24.00"/>
<path class="stroke" stroke-width="1"
	d="M512.00 139.00v-24.00"/>
<path class="stroke" stroke-width="3"
	d="M640.70 139.00v-24.00"/>
<path class="stroke" stroke-width="1"
	d="M635.20 139.00v-24.00"/>
<use x="631.20" y="139.00" xlink:href="#rdots"/>
<path class="stroke" stroke-width="3"
	d="M747.30 139.00v-24.00"/>
<path class="stroke" stroke-width="1"
	d="M741.80 139.00v-24.00"/>
<path d="m67.20 139.00
	h681.60
	M67.20 133.00
	h681.60
	M67.20 127.00
	h681.60
	M67.20 121.00
	h681.60
	M67.20 115.00
	h681.60
	" class="stroke"/>
</g>
<g stroke-width="0.70" style="font:12.00px Helvetica">
<text x="116.20" y="106.60">C</text>
<text x="174.00" y="106.60">Am</text>
<text x="246.10" y="106.60">C</text>
<text x="387.80" y="106.60">Am</text>
<text x="451.30" y="106.60">G7</text>
<text x="531.00" y="106.60">C</text>
<text x="660.20" y="106.60">C</text>
</g>
<g stroke-width="0.70" style="font:13.00px Times">
<text x="517.00" y="100.40">1</text>
<path class="stroke"
	d="M513.00 89.00m0 20v-20h121.20v20"/>
<text x="646.20" y="100.40">2</text>
<path class="stroke"
	d="M642.20 89.00m0 20v-20h106.60v20"/>
<use x="79.20" y="133.00" xlink:href="#tclef"/>
<use x="119.70" y="145.00" xlink:href="#hl"/>
<use x="119.70" y="145.00" xlink:href="#hd"/>
<circle class="fill" cx="127.40" cy="142.00" r="1.2"/>
<path d="M123.20 145.00v-21.00" class="stroke"/>
<use x="158.00" y="145.00" xlink:href="#hl"/>
<use x="158.00" y="145.00" xlink:href="#hd"/>
<path d="M161.50 145.00v-21.00" class="stroke"/>
<path class="fill"
	d="M161.50 124.00c0.6 5.6 9.6 9 5.6 18.4
	1.6 -6 -1.3 -11.6 -5.6 -12.8
"/>
<use x="181.90" y="145.00" xlink:href="#hl"/>
<use x="181.90" y="145.00" xlink:href="#hd"/>
<circle class="fill" cx="189.60" cy="142.00" r="1.2"/>
<path d="M185.40 145.00v-21.00" class="stroke"/>
<use x="220.10" y="142.00" xlink:href="#hd"/>
<path d="M223.60 142.00v-21.00" class="stroke"/>
<path class="fill"
	d="M223.60 121.00c0.6 5.6 9.6 9 5.6 18.4
	1.6 -6 -1.3 -11.6 -5.6 -12.8
"/>
<use x="249.60" y="139.00" xlink:href="#hd"/>
<path d="M253.10 139.00v-21.00" class="stroke"/>
<path class="fill"
	d="M286.10 119.00l22.00 4.00v3.20l-22.00 -4.00"/>
<use x="283.00" y="139.00" xlink:href="#hd"/>
<path d="M286.50 139.00v-18.90" class="stroke"/>
<use x="304.30" y="145.00" xlink:href="#hl"/>
<use x="304.30" y="145.00" xlink:href="#hd"/>
<path d="M307.80 145.00v-21.10" class="stroke"/>
<use x="328.00" y="133.00" xlink:href="#hd"/>
<circle class="fill" cx="335.70" cy="130.00" r="1.2"/>
<path d="M331.50 133.00v-21.00" class="stroke"/>
<use x="366.20" y="145.00" xlink:href="#hl"/>
<use x="366.20" y="145.00" xlink:href="#hd"/>
<path d="M369.70 145.00v-21.00" class="stroke"/>
<path class="fill"
	d="M369.70 124.00c0.6 5.6 9.6 9 5.6 18.4
	1.6 -6 -1.3 -11.6 -5.6 -12.8
"/>
<use x="395.70" y="139.00" xlink:href="#hd"/>
<circle class="fill" cx="403.40" cy="136.00" r="1.2"/>
<path d="M399.20 139.00v-21.00" class="stroke"/>
<use x="433.90" y="142.00" xlink:href="#hd"/>
<path d="M437.40 142.00v-21.00" class="stroke"/>
<path class="fill"
	d="M437.40 121.00c0.6 5.6 9.6 9 5.6 18.4
	1.6 -6 -1.3 -11.6 -5.6 -12.8
"/>
<use x="457.80" y="136.00" xlink:href="#hd"/>
<circle class="fill" cx="465.50" cy="136.00" r="1.2"/>
<path d="M461.30 136.00v-21.00" class="stroke"/>
<use x="496.00" y="145.00" xlink:href="#hl"/>
<use x="496.00" y="148.00" xlink:href="#hd"/>
<path d="M499.50 148.00v-21.00" class="stroke"/>
<path class="fill"
	d="M499.50 127.00c0.6 5.6 9.6 9 5.6 18.4
	1.6 -6 -1.3 -11.6 -5.6 -12.8
"/>
<use x="534.50" y="145.00" xlink:href="#hl"/>
<use x="534.50" y="145.00" xlink:href="#Hd"/>
<path d="M538.00 145.00v-21.00" class="stroke"/>
<use x="581.60" y="145.00" xlink:href="#hl"/>
<use x="581.60" y="145.00" xlink:href="#hd"/>
<path d="M585.10 145.00v-21.00" class="stroke"/>
<use x="615.00" y="145.00" xlink:href="#hl"/>
<use x="615.00" y="151.00" xlink:href="#hl"/>
<use x="615.00" y="151.00" xlink:href="#hd"/>
<path d="M618.50 151.00v-24.00" class="stroke"/>
<use x="663.70" y="145.00" xlink:href="#hl"/>
<use x="663.70" y="145.00" xlink:href="#Hd"/>
<path d="M667.20 145.00v-21.00" class="stroke"/>
<use x="710.80" y="145.00" xlink:href="#hl"/>
<use x="710.80" y="145.00" xlink:href="#Hd"/>
<path d="M714.30 145.00v-21.00" class="stroke"/>
</g>
</svg>
