<?xml version="1.0" standalone="no"?>
<!DOCTYPE svg PUBLIC "-//W3C//DTD SVG 1.1//EN"
	"http://www.w3.org/Graphics/SVG/1.1/DTD/svg11.dtd">
<svg xmlns="http://www.w3.org/2000/svg" version="1.1"
	xmlns:xlink="http://www.w3.org/1999/xlink"
	color="black"
	width="816.00px" height="89.00px">
<style type="text/css">
.fill {fill: currentColor}
.stroke {stroke: currentColor; fill: none}
text{white-space:pre; fill:currentColor}
</style>
<title>/var/folders/1h/l9f7pgjn5mgc2xg2jgvvjsp40000gn/T/tmpfqghzhzy/h.abc (1) tune 1</title>
<!-- Creator: abcm2ps-8.14.18 -->
<!-- CreationDate: Aug 27, 2026 16:27 -->
<!-- CommandLine: -g -O /var/folders/1h/l9f7pgjn5mgc2xg2jgvvjsp40000gn/T/tmpfqghzhzy/p - /var/folders/1h/l9f7pgjn5mgc2xg2jgvvjsp40000gn/T/tmpfqghzhzy/h.abc -->
<g stroke-width="0.70">
<path class="stroke" stroke-width="1"
	d="M147.00 66.00v-24.00"/>
<path class="stroke" stroke-width="1"
	d="M257.40 66.00v-24.00"/>
<path class="stroke" stroke-width="1"
	d="M356.80 66.00v-24.00"/>
<path class="stroke" stroke-width="1"
	d="M477.70 66.00v-24.00"/>
<path class="stroke" stroke-width="3"
	d="M527.80 66.00v-24.00"/>
<path class="stroke" stroke-width="1"
	d="M522.30 66.00v-24.00"/>
<path d="m67.20 66.00
	h462.10
	M67.20 60.00
	h462.10
	M67.20 54.00
	h462.10
	M67.20 48.00
	h462.10
	M67.20 42.00
	h462.10
	" class="stroke"/>
</g>
<g stroke-width="0.70" style="font:12.00px Helvetica">
<text x="154.80" y="23.60">Em</text>
<text x="268.70" y="23.60">G</text>
<text x="364.60" y="23.60">Em</text>
<text x="427.00" y="23.60">D7</text>
<text x="489.00" y="23.60">G</text>
<defs>
<path id="utclef" class="fill" d="m-50 -90
	c-72 -41 -72 -158 52 -188
	150 -10 220 188 90 256
	-114 52 -275 0 -293 -136
	-15 -181 93 -229 220 -334
	88 -87 79 -133 62 -210
	-51 33 -94 105 -89 186
	17 267 36 374 49 574
	6 96 -19 134 -77 135
	-80 1 -126 -93 -61 -133
	85 -41 133 101 31 105
	23 17 92 37 90 -92
	-10 -223 -39 -342 -50 -617
	0 -90 0 -162 96 -232
	56 72 63 230 22 289
	-74 106 -257 168 -255 316
	9 153 148 185 252 133
	86 -65 29 -192 -80 -176
	-71 12 -105 67 -59 124"/>
<use id="tclef" transform="translate(0,6) scale(0.045)"
	xlink:href="#utclef"/>
</defs>
<use x="79.20" y="60.00" xlink:href="#tclef"/>
<defs>
<path id="usharp" class="fill" d="
	m136 -702
	v890
	h32
	v-890
	m128 840
	h32
	v-888
	h-32
	m-232 286
	v116
	l338 -96
	v-116
	m-338 442
	v116
	l338 -98
	v-114"/>
<use id="sh0" transform="translate(-4,5) scale(0.018)"
	xlink:href="#usharp"/>
</defs>
<use x="94.20" y="42.00" xlink:href="#sh0"/>
<g style="font:bold 16px serif"
	transform="translate(110.20,65.50) scale(1.2,1)">
	<text text-anchor="middle">4</text>
	<text y="-12" text-anchor="middle">4</text>
</g>
<defs>
<ellipse id="hd" rx="4.1" ry="2.9"
	transform="rotate(-20)" class="fill"/>
</defs>
<use x="128.20" y="69.00" xlink:href="#hd"/>
<path d="M131.70 69.00v-21.00" class="stroke"/>
<path class="fill"
	d="M131.70 48.00c0.6 5.6 9.6 9 5.6 18.4
	1.6 -6 -1.3 -11.6 -5.6 -12.8
"/>
<path class="fill"
	d="M165.30 46.80l77.10 5.20v3.20l-77.10 -5.20"/>
<use x="162.20" y="66.00" xlink:href="#hd"/>
<path d="M165.70 66.00v-18.20" class="stroke"/>
<use x="187.60" y="69.00" xlink:href="#hd"/>
<path d="M191.10 69.00v-19.50" class="stroke"/>
<defs>
<path id="hl" class="stroke" d="m-6 0h12"/>
</defs>
<use x="213.10" y="72.00" xlink:href="#hl"/>
<use x="213.10" y="75.00" xlink:href="#hd"/>
<path d="M216.60 75.00v-23.80" class="stroke"/>
<use x="238.60" y="72.00" xlink:href="#hl"/>
<use x="238.60" y="78.00" xlink:href="#hl"/>
<use x="238.60" y="81.00" xlink:href="#hd"/>
<path d="M242.10 81.00v-28.10" class="stroke"/>
<use x="272.50" y="69.00" xlink:href="#hd"/>
<path d="M276.00 69.00v-21.00" class="stroke"/>
<path class="fill"
	d="M315.70 46.10l26.10 -5.40v3.20l-26.10 5.40"/>
<use x="312.50" y="69.00" xlink:href="#hd"/>
<path d="M316.00 69.00v-21.90" class="stroke"/>
<use x="338.00" y="60.00" xlink:href="#hd"/>
<path d="M341.50 60.00v-18.20" class="stroke"/>
<path class="fill"
	d="M375.10 29.80l87.60 0.00v3.20l-87.60 -0.00"/>
<path class="fill"
	d="M400.90 34.80l18.00 0.00v3.20l-18.00 -0.00"/>
<use x="372.00" y="54.00" xlink:href="#hd"/>
<path d="M375.50 54.00v-23.20" class="stroke"/>
<use x="397.40" y="54.00" xlink:href="#hd"/>
<path d="M400.90 54.00v-23.20" class="stroke"/>
<use x="415.40" y="54.00" xlink:href="#hd"/>
<path d="M418.90 54.00v-23.20" class="stroke"/>
<use x="433.40" y="57.00" xlink:href="#hd"/>
<path d="M436.90 57.00v-26.20" class="stroke"/>
<use x="458.90" y="60.00" xlink:href="#hd"/>
<path d="M462.40 60.00v-29.20" class="stroke"/>
<use x="492.90" y="60.00" xlink:href="#hd"/>
<circle class="fill" cx="500.60" cy="57.00" r="1.2"/>
<path d="M496.40 60.00v-21.00" class="stroke"/>
</g>
</svg>
