<?xml version="1.0" standalone="no"?>
<!DOCTYPE svg PUBLIC "-//W3C//DTD SVG 1.1//EN"
	"http://www.w3.org/Graphics/SVG/1.1/DTD/svg11.dtd">
<svg xmlns="http://www.w3.org/2000/svg" version="1.1"
	xmlns:xlink="http://www.w3.org/1999/xlink"
	color="black"
	width="816.00px" height="313.00px">
<style type="text/css">
.fill {fill: currentColor}
.stroke {stroke: currentColor; fill: none}
text{white-space:pre; fill:currentColor}
</style>
<title>/var/folders/1h/l9f7pgjn5mgc2xg2jgvvjsp40000gn/T/tmp66wth3rh/h.abc (1) tune 1</title>
<!-- Creator: abcm2ps-8.14.18 -->
<!-- CreationDate: Aug 27, 2026 16:27 -->
<!-- CommandLine: -g -O /var/folders/1h/l9f7pgjn5mgc2xg2jgvvjsp40000gn/T/tmp66wth3rh/p - /var/folders/1h/l9f7pgjn5mgc2xg2jgvvjsp40000gn/T/tmp66wth3rh/h.abc -->
<g stroke-width="0.70">
<defs>
<g id="rdots" class="fill">
	<circle cx="0" cy="-9" r="1.2"/>
	<circle cx="0" cy="-15" r="1.2"/>
</g>
</defs>
<use x="183.00" y="62.00" xlink:href="#rdots"/>
<path class="stroke" stroke-width="1"
	d="M178.00 62.00v-24.00"/>
<path class="stroke" stroke-width="3"
	d="M173.50 62.00v-24.00"/>
<path class="stroke" stroke-width="1"
	d="M289.00 62.00v-24.00"/>
<path class="stroke" stroke-width="1"
	d="M375.30 62.00v-24.00"/>
<path class="stroke" stroke-width="1"
	d="M481.30 62.00v-24.00"/>
<path class="stroke" stroke-width="1"
	d="M544.70 62.00v-24.00"/>
<path class="stroke" stroke-width="1"
	d="M652.80 62.00v-24.00"/>
<path class="stroke" stroke-width="1"
	d="M747.80 62.00v-24.00"/>
<path d="m67.20 62.00
	h681.60
	M67.20 56.00
	h681.60
	M67.20 50.00
	h681.60
	M67.20 44.00
	h681.60
	M67.20 38.00
	h681.60
	" class="stroke"/>
</g>
<g stroke-width="0.70" style="font:12.00px Helvetica">
<text x="192.70" y="23.60">A</text>
<text x="239.90" y="23.60">E</text>
<text x="299.20" y="23.60">A</text>
<text x="428.90" y="23.60">A7</text>
<text x="491.50" y="23.60">D</text>
<text x="555.00" y="23.60">E</text>
<text x="658.30" y="23.60">F♯m</text>
<defs>
<path id="utclef" class="fill" d="m-50 -90
	c-72 -41 -72 -158 52 -188
	150 -10 220 188 90 256
	-114 52 -275 0 -293 -136
	-15 -181 93 -229 220 -334
	88 -87 79 -133 62 -210
	-51 33 -94 105 -89 186
	17 267 36 374 49 574
	6 96 -19 134 -77 135
	-80 1 -126 -93 -61 -133
	85 -41 133 101 31 105
	23 17 92 37 90 -92
	-10 -223 -39 -342 -50 -617
	0 -90 0 -162 96 -232
	56 72 63 230 22 289
	-74 106 -257 168 -255 316
	9 153 148 185 252 133
	86 -65 29 -192 -80 -176
	-71 12 -105 67 -59 124"/>
<use id="tclef" transform="translate(0,6) scale(0.045)"
	xlink:href="#utclef"/>
</defs>
<use x="79.20" y="56.00" xlink:href="#tclef"/>
<defs>
<path id="usharp" class="fill" d="
	m136 -702
	v890
	h32
	v-890
	m128 840
	h32
	v-888
	h-32
	m-232 286
	v116
	l338 -96
	v-116
	m-338 442
	v116
	l338 -98
	v-114"/>
<use id="sh0" transform="translate(-4,5) scale(0.018)"
	xlink:href="#usharp"/>
</defs>
<use x="94.20" y="38.00" xlink:href="#sh0"/>
<use x="99.70" y="47.00" xlink:href="#sh0"/>
<use x="105.20" y="35.00" xlink:href="#sh0"/>
<g style="font:bold 16px serif"
	transform="translate(121.20,61.50) scale(1.2,1)">
	<text text-anchor="middle">4</text>
	<text y="-12" text-anchor="middle">4</text>
</g>
<path class="fill"
	d="M135.40 53.00l25.00 0.00v-3.20l-25.00 -0.00"/>
<defs>
<path id="hl" class="stroke" d="m-6 0h12"/>
</defs>
<use x="139.20" y="32.00" xlink:href="#hl"/>
<defs>
<ellipse id="hd" rx="4.1" ry="2.9"
	transform="rotate(-20)" class="fill"/>
</defs>
<use x="139.20" y="32.00" xlink:href="#hd"/>
<path d="M135.70 32.00v20.00" class="stroke"/>
<use x="151.40" y="32.00" xlink:href="#hl"/>
<use x="151.40" y="32.00" xlink:href="#hd"/>
<path d="M147.90 32.00v20.00" class="stroke"/>
<use x="163.50" y="32.00" xlink:href="#hl"/>
<use x="163.50" y="32.00" xlink:href="#hd"/>
<path d="M160.00 32.00v20.00" class="stroke"/>
<path class="fill"
	d="M192.70 58.90l35.00 3.90v-3.20l-35.00 -3.90"/>
<use x="196.50" y="32.00" xlink:href="#hl"/>
<use x="196.50" y="32.00" xlink:href="#hd"/>
<path d="M193.00 32.00v25.90" class="stroke"/>
<use x="208.00" y="41.00" xlink:href="#hd"/>
<path d="M204.50 41.00v18.20" class="stroke"/>
<use x="219.40" y="41.00" xlink:href="#hd"/>
<path d="M215.90 41.00v19.50" class="stroke"/>
<use x="230.90" y="41.00" xlink:href="#hd"/>
<path d="M227.40 41.00v20.70" class="stroke"/>
<path class="fill"
	d="M239.30 62.20l35.00 0.00v-3.20l-35.00 -0.00"/>
<use x="243.10" y="38.00" xlink:href="#hd"/>
<path d="M239.60 38.00v23.20" class="stroke"/>
<use x="254.60" y="41.00" xlink:href="#hd"/>
<path d="M251.10 41.00v20.20" class="stroke"/>
<use x="266.10" y="41.00" xlink:href="#hd"/>
<path d="M262.60 41.00v20.20" class="stroke"/>
<use x="277.50" y="41.00" xlink:href="#hd"/>
<path d="M274.00 41.00v20.20" class="stroke"/>
<defs>
<path id="Hd" class="fill" d="m3 -1.6
	c-1 -1.8 -7 1.4 -6 3.2
	1 1.8 7 -1.4 6 -3.2
	m0.5 -0.3
	c2 3.8 -5 7.6 -7 3.8
	-2 -3.8 5 -7.6 7 -3.8"/>
</defs>
<use x="303.00" y="53.00" xlink:href="#Hd"/>
<path d="M306.50 53.00v-21.00" class="stroke"/>
<path class="fill"
	d="M324.20 72.30l36.50 -7.00v-3.20l-36.50 7.00"/>
<use x="328.00" y="53.00" xlink:href="#hd"/>
<path d="M324.50 53.00v18.20" class="stroke"/>
<use x="339.50" y="32.00" xlink:href="#hl"/>
<use x="339.50" y="32.00" xlink:href="#hd"/>
<path d="M336.00 32.00v37.00" class="stroke"/>
<use x="351.60" y="32.00" xlink:href="#hl"/>
<use x="351.60" y="32.00" xlink:href="#hd"/>
<path d="M348.10 32.00v34.70" class="stroke"/>
<use x="363.80" y="32.00" xlink:href="#hl"/>
<use x="363.80" y="32.00" xlink:href="#hd"/>
<path d="M360.30 32.00v32.30" class="stroke"/>
<path class="fill"
	d="M384.90 58.90l35.00 3.90v-3.20l-35.00 -3.90"/>
<use x="388.80" y="32.00" xlink:href="#hl"/>
<use x="388.80" y="32.00" xlink:href="#hd"/>
<path d="M385.30 32.00v25.90" class="stroke"/>
<use x="400.20" y="41.00" xlink:href="#hd"/>
<path d="M396.70 41.00v18.20" class="stroke"/>
<use x="411.70" y="41.00" xlink:href="#hd"/>
<path d="M408.20 41.00v19.50" class="stroke"/>
<use x="423.10" y="41.00" xlink:href="#hd"/>
<path d="M419.60 41.00v20.70" class="stroke"/>
<path class="fill"
	d="M431.60 65.00l35.00 0.00v-3.20l-35.00 -0.00"/>
<use x="435.40" y="41.00" xlink:href="#hd"/>
<path d="M431.90 41.00v23.00" class="stroke"/>
<use x="446.90" y="47.00" xlink:href="#hd"/>
<path d="M443.40 47.00v17.00" class="stroke"/>
<use x="458.30" y="47.00" xlink:href="#hd"/>
<path d="M454.80 47.00v17.00" class="stroke"/>
<use x="469.80" y="47.00" xlink:href="#hd"/>
<path d="M466.30 47.00v17.00" class="stroke"/>
<use x="495.30" y="38.00" xlink:href="#Hd"/>
<circle class="fill" cx="504.00" cy="35.00" r="1.2"/>
<path d="M491.80 38.00v21.00" class="stroke"/>
<path class="fill"
	d="M517.90 65.00l12.10 0.00v-3.20l-12.10 -0.00"/>
<use x="521.80" y="44.00" xlink:href="#hd"/>
<path d="M518.30 44.00v20.00" class="stroke"/>
<use x="533.20" y="44.00" xlink:href="#hd"/>
<path d="M529.70 44.00v20.00" class="stroke"/>
<path class="fill"
	d="M554.40 62.20l35.00 0.00v-3.20l-35.00 -0.00"/>
<use x="558.20" y="44.00" xlink:href="#hd"/>
<path d="M554.70 44.00v17.20" class="stroke"/>
<use x="569.70" y="44.00" xlink:href="#hd"/>
<path d="M566.20 44.00v17.20" class="stroke"/>
<use x="581.10" y="44.00" xlink:href="#hd"/>
<path d="M577.60 44.00v17.20" class="stroke"/>
<use x="592.60" y="38.00" xlink:href="#hd"/>
<path d="M589.10 38.00v23.20" class="stroke"/>
<path class="fill"
	d="M601.00 53.00l37.20 0.00v-3.20l-37.20 -0.00"/>
<use x="604.80" y="32.00" xlink:href="#hl"/>
<use x="604.80" y="29.00" xlink:href="#hd"/>
<path d="M601.30 29.00v23.00" class="stroke"/>
<use x="617.00" y="32.00" xlink:href="#hl"/>
<use x="617.00" y="32.00" xlink:href="#hd"/>
<path d="M613.50 32.00v20.00" class="stroke"/>
<use x="629.20" y="32.00" xlink:href="#hl"/>
<use x="629.20" y="32.00" xlink:href="#hd"/>
<path d="M625.70 32.00v20.00" class="stroke"/>
<use x="641.30" y="32.00" xlink:href="#hl"/>
<use x="641.30" y="32.00" xlink:href="#hd"/>
<path d="M637.80 32.00v20.00" class="stroke"/>
<use x="666.30" y="41.00" xlink:href="#hd"/>
<path d="M662.80 41.00v21.00" class="stroke"/>
<use x="681.90" y="47.00" xlink:href="#hd"/>
<path d="M678.40 47.00v21.00" class="stroke"/>
<path class="fill"
	d="M698.10 65.00l35.00 0.00v-3.20l-35.00 -0.00"/>
<use x="701.90" y="47.00" xlink:href="#hd"/>
<path d="M698.40 47.00v17.00" class="stroke"/>
<use x="713.40" y="41.00" xlink:href="#hd"/>
<path d="M709.90 41.00v23.00" class="stroke"/>
<use x="724.80" y="41.00" xlink:href="#hd"/>
<path d="M721.30 41.00v23.00" class="stroke"/>
<use x="736.30" y="41.00" xlink:href="#hd"/>
<path d="M732.80 41.00v23.00" class="stroke"/>
<path class="fill"
	d="M306.50 53.00c2.83 4.82 15.15 4.82 17.98 -0.00
	v0.22c-3.37 6.61 -14.61 6.61 -17.98 -0.22"/>
<path class="fill"
	d="M685.40 47.00c2.06 -4.73 10.99 -4.73 13.05 -0.00
	v-0.21c-2.45 -6.52 -10.60 -6.52 -13.05 0.21"/>
</g>
<g stroke-width="0.70" style="font:12.00px Helvetica">
<path class="stroke" stroke-width="1"
	d="M209.70 140.00v-24.00"/>
<path class="stroke" stroke-width="1"
	d="M291.70 140.00v-24.00"/>
<path class="stroke" stroke-width="1"
	d="M394.40 140.00v-24.00"/>
<path class="stroke" stroke-width="1"
	d="M484.20 140.00v-24.00"/>
<path class="stroke" stroke-width="1"
	d="M584.20 140.00v-24.00"/>
<path class="stroke" stroke-width="3"
	d="M682.40 140.00v-24.00"/>
<path class="stroke" stroke-width="1"
	d="M676.90 140.00v-24.00"/>
<use x="672.90" y="140.00" xlink:href="#rdots"/>
<path class="stroke" stroke-width="1"
	d="M747.80 140.00v-24.00"/>
<path class="stroke" stroke-width="1"
	d="M743.80 140.00v-24.00"/>
<path d="m67.20 140.00
	h681.60
	M67.20 134.00
	h681.60
	M67.20 128.00
	h681.60
	M67.20 122.00
	h681.60
	M67.20 116.00
	h681.60
	" class="stroke"/>
<text x="115.60" y="98.60">Bm</text>
<text x="163.10" y="98.60">E</text>
<text x="219.90" y="98.60">A</text>
<text x="241.90" y="98.60">A7</text>
<text x="301.40" y="98.60">D</text>
<text x="345.10" y="98.60">E</text>
<text x="399.90" y="98.60">F♯m</text>
<text x="490.00" y="98.60">Bm</text>
<text x="537.60" y="98.60">E</text>
<text x="602.90" y="98.60">A</text>
<text x="710.00" y="98.60">A</text>
</g>
<g stroke-width="0.70" style="font:13.00px Times">
<text x="589.20" y="98.40">1</text>
<path class="stroke"
	d="M585.20 87.00m0 20v-20h90.70v20"/>
<text x="687.90" y="98.40">2</text>
<path class="stroke"
	d="M683.90 87.00m0 20v-20h64.90v20"/>
<use x="79.20" y="134.00" xlink:href="#tclef"/>
<use x="94.20" y="116.00" xlink:href="#sh0"/>
<use x="99.70" y="125.00" xlink:href="#sh0"/>
<use x="105.20" y="113.00" xlink:href="#sh0"/>
<path class="fill"
	d="M119.40 147.20l32.60 0.00v-3.20l-32.60 -0.00"/>
<use x="123.20" y="119.00" xlink:href="#hd"/>
<path d="M119.70 119.00v27.20" class="stroke"/>
<use x="133.80" y="128.00" xlink:href="#hd"/>
<path d="M130.30 128.00v18.20" class="stroke"/>
<use x="144.50" y="128.00" xlink:href="#hd"/>
<path d="M141.00 128.00v18.20" class="stroke"/>
<use x="155.10" y="125.00" xlink:href="#hd"/>
<path d="M151.60 125.00v21.20" class="stroke"/>
<path class="fill"
	d="M162.50 143.00l32.60 0.00v-3.20l-32.60 -0.00"/>
<use x="166.30" y="122.00" xlink:href="#hd"/>
<path d="M162.80 122.00v20.00" class="stroke"/>
<use x="176.90" y="122.00" xlink:href="#hd"/>
<path d="M173.40 122.00v20.00" class="stroke"/>
<use x="187.60" y="125.00" xlink:href="#hd"/>
<path d="M184.10 125.00v17.00" class="stroke"/>
<use x="198.20" y="122.00" xlink:href="#hd"/>
<path d="M194.70 122.00v20.00" class="stroke"/>
<use x="223.70" y="119.00" xlink:href="#Hd"/>
<path d="M220.20 119.00v21.00" class="stroke"/>
<path class="fill"
	d="M244.50 150.20l32.60 0.00v-3.20l-32.60 -0.00"/>
<use x="248.30" y="119.00" xlink:href="#hd"/>
<path d="M244.80 119.00v30.20" class="stroke"/>
<use x="259.00" y="131.00" xlink:href="#hd"/>
<path d="M255.50 131.00v18.20" class="stroke"/>
<use x="269.60" y="131.00" xlink:href="#hd"/>
<path d="M266.10 131.00v18.20" class="stroke"/>
<use x="280.20" y="125.00" xlink:href="#hd"/>
<path d="M276.70 125.00v24.20" class="stroke"/>
<path class="fill"
	d="M301.40 140.20l32.60 0.00v-3.20l-32.60 -0.00"/>
<use x="305.20" y="122.00" xlink:href="#hd"/>
<path d="M301.70 122.00v17.20" class="stroke"/>
<use x="315.80" y="122.00" xlink:href="#hd"/>
<path d="M312.30 122.00v17.20" class="stroke"/>
<use x="326.50" y="122.00" xlink:href="#hd"/>
<path d="M323.00 122.00v17.20" class="stroke"/>
<use x="337.10" y="116.00" xlink:href="#hd"/>
<path d="M333.60 116.00v23.20" class="stroke"/>
<path class="fill"
	d="M344.50 131.00l35.20 0.00v-3.20l-35.20 -0.00"/>
<use x="348.30" y="110.00" xlink:href="#hl"/>
<use x="348.30" y="107.00" xlink:href="#hd"/>
<path d="M344.80 107.00v23.00" class="stroke"/>
<use x="359.80" y="110.00" xlink:href="#hl"/>
<use x="359.80" y="110.00" xlink:href="#hd"/>
<path d="M356.30 110.00v20.00" class="stroke"/>
<use x="371.30" y="110.00" xlink:href="#hl"/>
<use x="371.30" y="110.00" xlink:href="#hd"/>
<path d="M367.80 110.00v20.00" class="stroke"/>
<use x="382.90" y="110.00" xlink:href="#hl"/>
<use x="382.90" y="110.00" xlink:href="#hd"/>
<path d="M379.40 110.00v20.00" class="stroke"/>
<use x="407.90" y="119.00" xlink:href="#hd"/>
<path d="M404.40 119.00v21.00" class="stroke"/>
<use x="421.50" y="125.00" xlink:href="#hd"/>
<path d="M418.00 125.00v21.00" class="stroke"/>
<path class="fill"
	d="M436.90 143.00l32.60 0.00v-3.20l-32.60 -0.00"/>
<use x="440.80" y="125.00" xlink:href="#hd"/>
<path d="M437.30 125.00v17.00" class="stroke"/>
<use x="451.40" y="119.00" xlink:href="#hd"/>
<path d="M447.90 119.00v23.00" class="stroke"/>
<use x="462.00" y="119.00" xlink:href="#hd"/>
<path d="M458.50 119.00v23.00" class="stroke"/>
<use x="472.70" y="119.00" xlink:href="#hd"/>
<path d="M469.20 119.00v23.00" class="stroke"/>
<path class="fill"
	d="M493.80 147.20l32.60 0.00v-3.20l-32.60 -0.00"/>
<use x="497.70" y="119.00" xlink:href="#hd"/>
<path d="M494.20 119.00v27.20" class="stroke"/>
<use x="508.30" y="128.00" xlink:href="#hd"/>
<path d="M504.80 128.00v18.20" class="stroke"/>
<use x="518.90" y="128.00" xlink:href="#hd"/>
<path d="M515.40 128.00v18.20" class="stroke"/>
<use x="529.60" y="125.00" xlink:href="#hd"/>
<path d="M526.10 125.00v21.20" class="stroke"/>
<path class="fill"
	d="M536.90 147.20l32.60 0.00v-3.20l-32.60 -0.00"/>
<use x="540.80" y="122.00" xlink:href="#hd"/>
<path d="M537.30 122.00v24.20" class="stroke"/>
<use x="551.40" y="122.00" xlink:href="#hd"/>
<path d="M547.90 122.00v24.20" class="stroke"/>
<use x="562.00" y="125.00" xlink:href="#hd"/>
<path d="M558.50 125.00v21.20" class="stroke"/>
<use x="572.70" y="128.00" xlink:href="#hd"/>
<path d="M569.20 128.00v18.20" class="stroke"/>
<use x="606.70" y="131.00" xlink:href="#Hd"/>
<path d="M610.20 131.00v-21.00" class="stroke"/>
<path class="fill"
	d="M625.90 150.30l34.30 -6.80v-3.20l-34.30 6.80"/>
<use x="629.70" y="131.00" xlink:href="#hd"/>
<path d="M626.20 131.00v18.20" class="stroke"/>
<use x="640.30" y="110.00" xlink:href="#hl"/>
<use x="640.30" y="110.00" xlink:href="#hd"/>
<path d="M636.80 110.00v37.10" class="stroke"/>
<use x="651.80" y="110.00" xlink:href="#hl"/>
<use x="651.80" y="110.00" xlink:href="#hd"/>
<path d="M648.30 110.00v34.80" class="stroke"/>
<use x="663.40" y="110.00" xlink:href="#hl"/>
<use x="663.40" y="110.00" xlink:href="#hd"/>
<path d="M659.90 110.00v32.50" class="stroke"/>
<g style="font:bold 16px serif"
	transform="translate(695.40,139.50) scale(1.2,1)">
	<text text-anchor="middle">4</text>
	<text y="-12" text-anchor="middle">3</text>
</g>
<use x="713.90" y="131.00" xlink:href="#Hd"/>
<path d="M717.40 131.00v-21.00" class="stroke"/>
<use x="731.30" y="131.00" xlink:href="#hd"/>
<path d="M734.80 131.00v-21.00" class="stroke"/>
<path class="fill"
	d="M227.20 119.00c2.78 -4.82 14.85 -4.82 17.63 -0.00
	v-0.22c-3.31 -6.60 -14.32 -6.60 -17.63 0.22"/>
<path class="fill"
	d="M423.00 125.00c2.56 -4.79 13.70 -4.79 16.26 -0.00
	v-0.22c-3.05 -6.58 -13.21 -6.58 -16.26 0.22"/>
<path class="fill"
	d="M610.20 131.00c2.53 4.79 13.51 4.79 16.03 -0.00
	v0.22c-3.01 6.57 -13.03 6.57 -16.03 -0.22"/>
</g>
<g stroke-width="0.70" style="font:13.00px Times">
<use x="129.70" y="214.00" xlink:href="#rdots"/>
<path class="stroke" stroke-width="1"
	d="M124.70 214.00v-24.00"/>
<path class="stroke" stroke-width="3"
	d="M120.20 214.00v-24.00"/>
<path class="stroke" stroke-width="1"
	d="M223.40 214.00v-24.00"/>
<path class="stroke" stroke-width="1"
	d="M317.00 214.00v-24.00"/>
<path class="stroke" stroke-width="1"
	d="M410.70 214.00v-24.00"/>
<path class="stroke" stroke-width="1"
	d="M487.00 214.00v-24.00"/>
<path class="stroke" stroke-width="1"
	d="M577.70 214.00v-24.00"/>
<path class="stroke" stroke-width="1"
	d="M654.10 214.00v-24.00"/>
<path class="stroke" stroke-width="1"
	d="M747.80 214.00v-24.00"/>
<path d="m67.20 214.00
	h681.60
	M67.20 208.00
	h681.60
	M67.20 202.00
	h681.60
	M67.20 196.00
	h681.60
	M67.20 190.00
	h681.60
	" class="stroke"/>
</g>
<g stroke-width="0.70" style="font:12.00px Helvetica">
<text x="233.10" y="174.60">D</text>
<text x="420.90" y="174.60">A</text>
<text x="584.10" y="174.60">Bm</text>
<text x="664.30" y="174.60">E</text>
<use x="79.20" y="208.00" xlink:href="#tclef"/>
<use x="94.20" y="190.00" xlink:href="#sh0"/>
<use x="99.70" y="199.00" xlink:href="#sh0"/>
<use x="105.20" y="187.00" xlink:href="#sh0"/>
<use x="143.20" y="205.00" xlink:href="#hd"/>
<path d="M146.70 205.00v-21.00" class="stroke"/>
<use x="173.10" y="202.00" xlink:href="#hd"/>
<path d="M176.60 202.00v-21.00" class="stroke"/>
<use x="203.10" y="199.00" xlink:href="#hd"/>
<path d="M199.60 199.00v21.00" class="stroke"/>
<use x="236.90" y="196.00" xlink:href="#hd"/>
<path d="M233.40 196.00v21.00" class="stroke"/>
<use x="266.80" y="196.00" xlink:href="#hd"/>
<path d="M263.30 196.00v21.00" class="stroke"/>
<use x="296.70" y="190.00" xlink:href="#hd"/>
<path d="M293.20 190.00v21.00" class="stroke"/>
<use x="330.50" y="184.00" xlink:href="#hl"/>
<use x="330.50" y="181.00" xlink:href="#hd"/>
<path d="M327.00 181.00v21.00" class="stroke"/>
<use x="360.50" y="184.00" xlink:href="#hl"/>
<use x="360.50" y="184.00" xlink:href="#hd"/>
<path d="M357.00 184.00v21.00" class="stroke"/>
<use x="390.30" y="199.00" xlink:href="#hd"/>
<path d="M386.80 199.00v21.00" class="stroke"/>
<use x="424.70" y="193.00" xlink:href="#Hd"/>
<path d="M421.20 193.00v21.00" class="stroke"/>
<use x="466.70" y="190.00" xlink:href="#hd"/>
<path d="M463.20 190.00v21.00" class="stroke"/>
<use x="500.50" y="193.00" xlink:href="#hd"/>
<path d="M497.00 193.00v21.00" class="stroke"/>
<use x="530.40" y="199.00" xlink:href="#hd"/>
<path d="M526.90 199.00v21.00" class="stroke"/>
<use x="557.40" y="205.00" xlink:href="#hd"/>
<path d="M560.90 205.00v-21.00" class="stroke"/>
<use x="591.70" y="202.00" xlink:href="#Hd"/>
<path d="M595.20 202.00v-21.00" class="stroke"/>
<use x="633.70" y="202.00" xlink:href="#hd"/>
<path d="M637.20 202.00v-21.00" class="stroke"/>
<use x="667.60" y="202.00" xlink:href="#hd"/>
<path d="M671.10 202.00v-21.00" class="stroke"/>
<use x="697.40" y="205.00" xlink:href="#hd"/>
<path d="M700.90 205.00v-21.00" class="stroke"/>
<use x="727.50" y="196.00" xlink:href="#hd"/>
<path d="M724.00 196.00v21.00" class="stroke"/>
</g>
<g stroke-width="0.70" style="font:12.00px Helvetica">
<path class="stroke" stroke-width="1"
	d="M160.90 290.00v-24.00"/>
<path class="stroke" stroke-width="1"
	d="M226.60 290.00v-24.00"/>
<path class="stroke" stroke-width="1"
	d="M291.50 290.00v-24.00"/>
<path class="stroke" stroke-width="1"
	d="M356.90 290.00v-24.00"/>
<path class="stroke" stroke-width="1"
	d="M410.40 290.00v-24.00"/>
<path class="stroke" stroke-width="1"
	d="M473.70 290.00v-24.00"/>
<path class="stroke" stroke-width="1"
	d="M538.60 290.00v-24.00"/>
<path class="stroke" stroke-width="1"
	d="M602.00 290.00v-24.00"/>
<path class="stroke" stroke-width="3"
	d="M668.90 290.00v-24.00"/>
<path class="stroke" stroke-width="1"
	d="M663.40 290.00v-24.00"/>
<use x="659.40" y="290.00" xlink:href="#rdots"/>
<path class="stroke" stroke-width="3"
	d="M747.30 290.00v-24.00"/>
<path class="stroke" stroke-width="1"
	d="M741.80 290.00v-24.00"/>
<path d="m67.20 290.00
	h681.60
	M67.20 284.00
	h681.60
	M67.20 278.00
	h681.60
	M67.20 272.00
	h681.60
	M67.20 266.00
	h681.60
	" class="stroke"/>
<text x="119.90" y="250.60">A</text>
<text x="168.00" y="250.60">A7</text>
<text x="236.30" y="250.60">D</text>
<text x="367.10" y="250.60">A</text>
<text x="479.60" y="250.60">Bm</text>
<text x="548.90" y="250.60">E</text>
<text x="620.60" y="250.60">A</text>
<text x="696.60" y="250.60">A</text>
</g>
<g stroke-width="0.70" style="font:13.00px Times">
<text x="607.00" y="250.40">1</text>
<path class="stroke"
	d="M603.00 239.00m0 20v-20h59.40v20"/>
<text x="674.40" y="250.40">2</text>
<path class="stroke"
	d="M670.40 239.00m0 20v-20h78.40v20"/>
<use x="79.20" y="284.00" xlink:href="#tclef"/>
<use x="94.20" y="266.00" xlink:href="#sh0"/>
<use x="99.70" y="275.00" xlink:href="#sh0"/>
<use x="105.20" y="263.00" xlink:href="#sh0"/>
<use x="123.70" y="275.00" xlink:href="#Hd"/>
<path d="M120.20 275.00v21.00" class="stroke"/>
<use x="146.90" y="281.00" xlink:href="#hd"/>
<path d="M150.40 281.00v-21.00" class="stroke"/>
<use x="174.40" y="281.00" xlink:href="#hd"/>
<path d="M177.90 281.00v-21.00" class="stroke"/>
<use x="193.10" y="278.00" xlink:href="#hd"/>
<path d="M196.60 278.00v-21.00" class="stroke"/>
<use x="212.60" y="275.00" xlink:href="#hd"/>
<path d="M209.10 275.00v21.00" class="stroke"/>
<use x="240.10" y="272.00" xlink:href="#hd"/>
<path d="M236.60 272.00v21.00" class="stroke"/>
<use x="258.80" y="272.00" xlink:href="#hd"/>
<path d="M255.30 272.00v21.00" class="stroke"/>
<use x="277.50" y="266.00" xlink:href="#hd"/>
<path d="M274.00 266.00v21.00" class="stroke"/>
<use x="305.00" y="260.00" xlink:href="#hl"/>
<use x="305.00" y="257.00" xlink:href="#hd"/>
<path d="M301.50 257.00v21.00" class="stroke"/>
<use x="324.20" y="260.00" xlink:href="#hl"/>
<use x="324.20" y="260.00" xlink:href="#hd"/>
<path d="M320.70 260.00v21.00" class="stroke"/>
<use x="342.90" y="275.00" xlink:href="#hd"/>
<path d="M339.40 275.00v21.00" class="stroke"/>
<use x="370.90" y="269.00" xlink:href="#Hd"/>
<path d="M367.40 269.00v21.00" class="stroke"/>
<use x="396.30" y="266.00" xlink:href="#hd"/>
<path d="M392.80 266.00v21.00" class="stroke"/>
<use x="423.90" y="269.00" xlink:href="#hd"/>
<path d="M420.40 269.00v21.00" class="stroke"/>
<use x="442.60" y="275.00" xlink:href="#hd"/>
<path d="M439.10 275.00v21.00" class="stroke"/>
<use x="459.70" y="281.00" xlink:href="#hd"/>
<path d="M463.20 281.00v-21.00" class="stroke"/>
<use x="487.20" y="278.00" xlink:href="#hd"/>
<path d="M490.70 278.00v-21.00" class="stroke"/>
<use x="505.90" y="278.00" xlink:href="#hd"/>
<path d="M509.40 278.00v-21.00" class="stroke"/>
<use x="524.60" y="281.00" xlink:href="#hd"/>
<path d="M528.10 281.00v-21.00" class="stroke"/>
<use x="552.10" y="275.00" xlink:href="#hd"/>
<path d="M548.60 275.00v21.00" class="stroke"/>
<use x="569.20" y="281.00" xlink:href="#hd"/>
<path d="M572.70 281.00v-21.00" class="stroke"/>
<use x="587.90" y="287.00" xlink:href="#hd"/>
<path d="M591.40 287.00v-21.00" class="stroke"/>
<use x="624.50" y="281.00" xlink:href="#Hd"/>
<path d="M628.00 281.00v-21.00" class="stroke"/>
<use x="649.90" y="281.00" xlink:href="#hd"/>
<path d="M653.40 281.00v-21.00" class="stroke"/>
<g style="font:bold 16px serif"
	transform="translate(681.90,289.50) scale(1.2,1)">
	<text text-anchor="middle">4</text>
	<text y="-12" text-anchor="middle">4</text>
</g>
<use x="700.40" y="281.00" xlink:href="#Hd"/>
<path d="M703.90 281.00v-21.00" class="stroke"/>
<use x="728.80" y="281.00" xlink:href="#hd"/>
<path d="M732.30 281.00v-21.00" class="stroke"/>
<path class="fill"
	d="M732.30 260.00c0.6 5.6 9.6 9 5.6 18.4
	1.6 -6 -1.3 -11.6 -5.6 -12.8
"/>
<path class="fill"
	d="M703.90 281.00c3.37 4.89 18.04 4.89 21.42 -0.00
	v0.22c-4.02 6.66 -17.40 6.66 -21.42 -0.22"/>
</g>
</svg>
